<svg width="20" height="20" viewBox="0 0 24 24">
    <g fill="none" fill-rule="evenodd">
        <path d="M24 0v24H0V0h24ZM12.593 23.258l-.011.002l-.071.035l-.02.004l-.014-.004l-.071-.035c-.01-.004-.019-.001-.024.005l-.004.01l-.017.428l.005.02l.01.013l.104.074l.015.004l.012-.004l.104-.074l.012-.016l.004-.017l-.017-.427c-.002-.01-.009-.017-.017-.018Zm.265-.113l-.013.002l-.185.093l-.01.01l-.003.011l.018.43l.005.012l.008.007l.201.093c.012.004.023 0 .029-.008l.004-.014l-.034-.614c-.003-.012-.01-.02-.02-.022Zm-.715.002a.023.023 0 0 0-.027.006l-.006.014l-.034.614c0 .012.007.02.017.024l.015-.002l.201-.093l.01-.008l.004-.011l.017-.43l-.003-.012l-.01-.01l-.184-.092Z" />
        <path class="fill-black dark:fill-white" d="M13.232 1.36c.632-.758 1.863-.24 1.763.742L14.289 9H20a1 1 0 0 1 .768 1.64l-10 12c-.632.758-1.863.24-1.763-.742L9.711 15H4a1 1 0 0 1-.768-1.64l10-12ZM6.135 13h5.348a.4.4 0 0 1 .398.44l-.553 5.405L17.865 11h-5.348a.4.4 0 0 1-.398-.44l.553-5.404L6.135 13Z" />
    </g>
</svg>