<!-- Generator: Adobe Illustrator 24.3.0, SVG Export Plug-In  -->
<svg color="#ED4A56" fill=" #ED4A56" version="1.1" xmlns="http://www.w3.org/2000/svg"
    xmlns:xlink="http://www.w3.org/1999/xlink" x="0px" y="0px" width="24px" height="20.9px" viewBox="0 0 24 20.9"
    style="overflow:visible;enable-background:new 0 0 24 20.9;" xml:space="preserve">
    <style type="text/css">
        .st0 {
            fill: #ED4A56;
        }
    </style>
    <defs>
    </defs>
    <path class="st0" d="M24,7.2c0,3.7-2.7,6-5.3,8.2c-0.4,0.2-0.7,0.5-1,0.9l-1,0.9c-2.5,2.3-3.4,3.1-3.9,3.4c-0.2,0.1-0.3,0.2-0.5,0.2
	L15,16l-2.8-6.4l1.6-2.9l-1.7-4c1.3-1.8,3-2.7,5.2-2.7C21,0,24,3.2,24,7.2z" />
    <path class="st0" d="M14.5,16l-2.4,4.8c0,0-0.1,0-0.1,0c-0.2,0-0.5-0.1-0.8-0.2c-0.5-0.3-1.6-1.3-3.8-3.2l-1.2-1
	c-0.3-0.3-0.7-0.6-1-0.9C2.7,13.2,0,10.9,0,7.2c0-2.1,0.8-4,2.1-5.3c0.2-0.2,0.4-0.4,0.6-0.5c1.1-0.9,2.5-1.4,4-1.4
	c0.5,0,1,0,1.5,0.1l0,0l1.5,0.6l2.9,6l-1.4,3L14.5,16z" />
</svg>