<?xml version="1.0" standalone="no"?>
<!DOCTYPE svg PUBLIC "-//W3C//DTD SVG 20010904//EN"
 "http://www.w3.org/TR/2001/REC-SVG-20010904/DTD/svg10.dtd">
<svg version="1.0"
    xmlns="http://www.w3.org/2000/svg" width="206.000000pt" height="58.000000pt" viewBox="0 0 206.000000 58.000000" preserveAspectRatio="xMidYMid meet">

    <g transform="translate(0.000000,58.000000) scale(0.100000,-0.100000)" stroke="none">
        <path d="M69 553 c-34 -29 -68 -94 -69 -129 0 -26 36 -74 56 -74 11 0 12 4 4
19 -5 11 -10 36 -10 56 0 38 34 115 50 115 11 0 12 -110 1 -280 -4 -63 -6
-117 -4 -119 2 -3 16 7 31 22 l27 27 3 187 c3 194 2 202 -40 203 -9 0 -31 -12
-49 -27z"/>
        <path d="M670 541 c0 -37 -2 -40 -32 -43 -46 -4 -53 -38 -9 -38 l31 0 0 -70
c0 -46 -6 -82 -16 -102 l-16 -32 -13 31 c-7 16 -28 41 -46 56 -31 24 -32 27
-20 51 27 49 -16 78 -54 36 -13 -14 -16 -28 -11 -52 5 -27 0 -43 -27 -83 -18
-28 -37 -50 -42 -50 -6 0 -11 40 -13 91 -3 85 -4 92 -26 102 -33 15 -62 -8
-92 -72 l-24 -51 0 61 c0 53 -3 62 -19 67 -11 3 -22 2 -25 -1 -8 -7 -8 -216 0
-236 3 -9 14 -16 25 -16 13 0 21 12 29 43 17 69 40 125 60 149 19 23 19 22 20
-72 0 -98 8 -120 41 -120 20 0 66 50 94 103 23 44 36 46 64 11 39 -49 18 -89
-34 -66 -21 10 -26 8 -35 -8 -8 -15 -6 -21 9 -30 48 -25 125 -3 151 44 16 30
30 34 30 8 0 -29 29 -62 55 -62 14 0 34 12 49 31 14 17 26 26 26 20 0 -20 39
-51 64 -51 13 0 35 9 48 20 25 19 26 19 43 0 22 -24 52 -26 77 -3 17 15 19 15
36 0 23 -21 61 -22 90 -1 38 26 24 3 -34 -58 -47 -49 -55 -63 -52 -90 4 -42
44 -67 84 -53 46 17 65 54 73 141 6 67 12 86 38 122 18 24 37 59 43 78 6 19
16 35 21 36 33 5 34 2 31 -67 -3 -60 0 -74 18 -98 24 -31 55 -35 82 -10 17 15
19 15 36 0 25 -23 64 -21 90 3 l22 20 20 -20 c24 -24 53 -26 71 -4 11 14 13
14 21 0 5 -9 19 -16 32 -16 21 0 24 6 29 60 4 33 14 77 24 97 l17 38 6 -76 c8
-86 13 -99 40 -99 20 0 25 11 35 80 3 25 12 56 20 70 13 23 14 20 15 -46 0
-81 23 -124 65 -124 25 0 55 41 55 75 0 25 -15 17 -27 -15 -25 -66 -47 -23
-48 92 0 83 -9 102 -46 96 -19 -2 -27 -15 -44 -68 l-20 -65 -5 65 c-5 64 -6
65 -34 65 -24 0 -31 -6 -47 -45 l-18 -45 0 48 c-1 43 -3 47 -25 47 -23 0 -24
-2 -28 -95 -2 -73 -7 -98 -20 -112 -32 -31 -43 -3 -43 105 l0 97 -30 1 c-16 0
-38 4 -48 8 -29 13 -66 -3 -87 -37 -15 -23 -20 -50 -20 -98 0 -49 -4 -70 -16
-80 -14 -11 -18 -10 -31 6 -12 16 -13 38 -8 103 6 87 7 86 -43 82 -13 -1 -31
8 -42 22 l-20 23 -20 -23 c-15 -18 -17 -28 -10 -42 11 -20 -2 -65 -31 -114
l-18 -30 -3 90 -3 89 -30 1 c-16 0 -38 4 -49 9 -54 24 -106 -43 -106 -135 0
-33 -6 -64 -14 -76 -26 -35 -41 -2 -46 104 l-5 97 -30 2 c-16 1 -41 5 -55 8
-42 10 -77 -25 -90 -93 -15 -75 -36 -122 -55 -122 -21 0 -26 32 -23 135 l3 90
38 3 c23 2 37 8 37 17 0 9 -14 15 -37 17 -36 3 -38 5 -35 35 3 23 -2 34 -17
42 -33 18 -41 13 -41 -28z m250 -150 c24 -45 6 -153 -28 -166 -28 -11 -42 15
-42 79 0 87 42 139 70 87z m252 -16 c16 -59 -13 -155 -47 -155 -31 0 -46 90
-24 147 20 52 57 56 71 8z m416 23 c18 -18 15 -129 -4 -156 -35 -51 -68 -10
-62 79 6 76 34 109 66 77z m-412 -324 c-8 -38 -27 -57 -50 -48 -25 10 -19 47
17 95 l32 44 3 -29 c2 -16 1 -44 -2 -62z"/>
    </g>
</svg>
