<svg version="1.0"
    xmlns="http://www.w3.org/2000/svg"  viewBox="0 0 512.000000 512.000000" preserveAspectRatio="xMidYMid meet">

    <g transform="translate(0.000000,512.000000) scale(0.100000,-0.100000)" fill="#000000" stroke="none">
        <path d="M2512 4350 c-30 -28 -30 -82 0 -110 21 -20 31 -20 667 -20 l644 0 42
-25 c97 -56 101 -201 8 -262 -26 -17 -101 -18 -1463 -23 -1600 -6 -1464 1
-1550 -76 -72 -66 -84 -99 -88 -256 l-4 -137 -328 -3 -328 -3 -38 -30 c-20
-17 -45 -46 -56 -65 -18 -34 -18 -81 -16 -1257 l3 -1221 30 -38 c17 -20 46
-45 65 -55 34 -18 117 -19 2460 -19 2343 0 2426 1 2460 19 19 10 48 35 65 55
l30 38 3 1221 c2 1176 2 1223 -16 1257 -11 19 -36 48 -56 65 l-38 30 -506 3
c-279 1 -517 0 -530 -3 -46 -11 -59 -106 -19 -133 7 -4 237 -9 512 -12 l500
-5 0 -1190 0 -1190 -182 -3 -183 -2 0 680 c0 735 1 721 -53 778 -51 55 78 52
-1987 52 -2083 0 -1935 4 -1991 -57 -43 -46 -49 -82 -49 -278 0 -169 1 -184
21 -209 23 -30 72 -35 105 -12 17 13 19 31 24 208 l5 193 177 3 178 2 0 -426
0 -426 28 -28 c20 -19 44 -31 75 -35 l47 -7 0 -219 0 -219 -255 0 -255 0 0
345 c0 332 -1 346 -20 365 -30 30 -83 27 -109 -6 -20 -26 -21 -38 -21 -366 l0
-338 -182 2 -183 3 0 1190 0 1190 1759 3 1760 2 23 22 c31 29 31 77 0 106
l-23 22 -1377 0 -1377 0 0 113 c0 95 3 117 20 145 40 66 -53 62 1502 62 l1413
0 60 29 c120 56 182 161 173 295 -8 116 -65 203 -166 253 l-57 28 -665 3
c-661 3 -666 2 -688 -18z m-1184 -2472 l-3 -383 -72 -3 -73 -3 0 386 0 385 75
0 75 0 -2 -382z m354 -42 l3 -425 29 -30 c20 -21 43 -32 72 -37 l44 -6 0 -219
0 -219 -250 0 -250 0 0 219 0 218 38 6 c20 4 48 14 61 23 49 35 51 53 51 489
l0 405 100 0 99 0 3 -424z m298 39 l0 -385 -75 0 -75 0 0 385 0 385 75 0 75 0
0 -385z m350 -7 c0 -216 5 -411 10 -433 11 -49 48 -83 101 -91 l39 -7 0 -218
0 -219 -250 0 -250 0 0 219 0 219 43 6 c46 8 64 19 90 56 15 22 17 65 17 442
l0 418 100 0 100 0 0 -392z m308 10 l-3 -383 -75 0 -75 0 -3 383 -2 382 80 0
80 0 -2 -382z m502 -298 l0 -680 -250 0 -250 0 0 219 0 218 39 7 c53 8 90 42
101 91 5 22 10 217 10 433 l0 392 175 0 175 0 0 -680z m500 275 c0 -436 2
-454 51 -489 13 -9 41 -19 62 -23 l37 -6 0 -218 0 -219 -250 0 -250 0 0 680 0
680 175 0 175 0 0 -405z m300 20 l0 -386 -72 3 -73 3 -3 383 -2 382 75 0 75 0
0 -385z m508 -297 l2 -678 -255 0 -255 0 0 219 0 219 47 7 c31 4 55 16 75 35
l28 28 0 426 0 426 178 -2 177 -3 3 -677z"/>
        <path d="M2114 3106 c-61 -27 -64 -40 -64 -259 l0 -199 29 -29 29 -29 452 0
452 0 29 29 29 29 0 199 c0 221 -3 233 -66 259 -48 20 -844 20 -890 0z m806
-251 l0 -115 -360 0 -360 0 0 115 0 115 360 0 360 0 0 -115z"/>
        <path d="M720 2923 c-52 -20 -68 -85 -30 -123 18 -18 33 -20 155 -20 122 0
137 2 155 20 25 25 26 71 1 101 -18 23 -26 24 -143 26 -67 1 -130 0 -138 -4z"/>
        <path d="M1427 2910 c-34 -27 -37 -80 -7 -110 18 -18 33 -20 153 -20 127 0
135 1 155 23 27 29 28 67 3 98 -18 23 -27 24 -148 27 -119 3 -130 2 -156 -18z"/>
        <path d="M3413 2920 c-46 -19 -57 -83 -20 -118 21 -20 34 -22 155 -22 119 0
134 2 152 20 27 27 26 81 -1 106 -18 16 -39 19 -143 21 -66 2 -131 -2 -143 -7z"/>
        <path d="M4143 2920 c-45 -19 -57 -86 -23 -120 18 -18 33 -20 155 -20 122 0
137 2 155 20 27 27 26 81 -1 106 -18 16 -39 19 -143 21 -66 2 -131 -2 -143 -7z"/>
    </g>
</svg>
