<?xml version="1.0" standalone="no"?>
<!DOCTYPE svg PUBLIC "-//W3C//DTD SVG 20010904//EN"
 "http://www.w3.org/TR/2001/REC-SVG-20010904/DTD/svg10.dtd">
<svg version="1.0" xmlns="http://www.w3.org/2000/svg"
 width="50px" viewBox="0 0 512.000000 512.000000"
 preserveAspectRatio="xMidYMid meet">
<metadata>
Created by potrace 1.16, written by Peter Selinger 2001-2019
</metadata>
<g transform="translate(0.000000,512.000000) scale(0.100000,-0.100000)"
fill="#000000" stroke="none">
<path d="M288 3465 c-107 -29 -202 -111 -252 -215 l-31 -65 0 -625 0 -625 31
-65 c51 -106 145 -186 256 -216 79 -21 4457 -21 4536 0 111 30 205 110 256
216 l31 65 0 625 0 625 -31 65 c-51 106 -145 186 -256 216 -76 20 -4467 19
-4540 -1z m437 -415 c63 -39 65 -53 65 -408 l0 -320 193 -4 c213 -3 229 -7
267 -71 36 -59 17 -141 -42 -177 -31 -19 -50 -20 -313 -20 -263 0 -282 1 -313
20 -61 37 -62 47 -62 490 0 443 1 453 62 490 42 26 102 26 143 0z m1205 -11
c66 -31 133 -96 165 -159 34 -67 45 -145 45 -320 0 -175 -11 -253 -45 -320
-32 -63 -99 -128 -165 -159 -48 -23 -70 -26 -182 -29 -114 -3 -132 -1 -185 20
-111 45 -189 132 -218 244 -21 81 -21 407 0 488 29 111 106 197 214 243 50 21
69 23 186 21 116 -3 136 -6 185 -29z m968 -8 c108 -58 142 -123 106 -198 -39
-79 -127 -105 -196 -58 -32 22 -48 25 -119 25 -71 0 -86 -3 -106 -22 -23 -21
-23 -26 -23 -217 0 -186 1 -196 22 -218 18 -19 32 -23 79 -23 l57 0 -14 39
c-16 48 -5 98 33 135 34 35 60 41 168 41 78 0 94 -3 123 -23 65 -47 79 -125
41 -227 -28 -74 -73 -132 -139 -176 -73 -49 -132 -62 -271 -58 -102 4 -120 7
-172 33 -68 35 -133 101 -167 171 -25 49 -25 55 -25 305 0 250 0 256 24 305
45 90 126 162 216 192 26 8 84 12 170 10 127 -2 132 -3 193 -36z m542 22 c15
-9 38 -33 49 -53 20 -37 21 -50 21 -440 0 -390 -1 -403 -21 -440 -26 -45 -65
-70 -114 -70 -48 0 -91 24 -115 63 -19 30 -20 53 -20 445 0 456 0 454 63 492
39 24 99 26 137 3z m455 -2 c17 -10 107 -118 200 -239 94 -122 173 -221 178
-221 4 -1 7 83 7 185 0 171 2 189 21 224 39 68 120 91 186 50 63 -38 63 -36
63 -492 0 -392 -1 -415 -20 -445 -40 -66 -133 -84 -189 -37 -17 14 -106 121
-197 238 -91 116 -169 213 -175 214 -5 2 -9 -73 -9 -190 0 -174 -2 -196 -20
-225 -24 -39 -67 -63 -115 -63 -49 0 -88 25 -114 70 -20 37 -21 50 -21 434 0
435 1 439 59 489 39 33 101 36 146 8z"/>
<path d="M1642 2793 c-34 -13 -42 -60 -42 -233 0 -178 8 -219 45 -234 26 -10
164 -7 185 4 31 17 40 67 40 230 0 163 -9 213 -40 230 -19 10 -165 13 -188 3z"/>
</g>
</svg>
