<svg viewBox="0 0 145 145" fill="none" xmlns="http://www.w3.org/2000/svg">
  <path
    d="M27.2158 6.57129C22.6279 8.35547 18.748 10.7344 14.8682 14.6143C10.9883 18.4658 8.60938 22.374 6.8252 26.9336C5.09766 31.3516 3.93651 36.4209 3.59667 43.8408C3.25683 51.2607 3.17188 53.6397 3.17188 72.5576C3.17188 91.4756 3.25683 93.8545 3.59667 101.274C3.93651 108.694 5.12598 113.764 6.8252 118.182C8.60938 122.77 10.9883 126.649 14.8682 130.529C18.748 134.409 22.6279 136.788 27.2158 138.572C31.6338 140.3 36.7031 141.461 44.123 141.801C51.543 142.141 53.9219 142.226 72.8398 142.226C91.7578 142.226 94.1367 142.141 101.557 141.801C108.977 141.461 114.046 140.271 118.464 138.572C123.052 136.788 126.932 134.409 130.812 130.529C134.691 126.649 137.07 122.77 138.854 118.182C140.582 113.764 141.743 108.694 142.083 101.274C142.423 93.8545 142.508 91.4756 142.508 72.5576C142.508 53.6397 142.423 51.2607 142.083 43.8408C141.743 36.4209 140.554 31.3516 138.854 26.9336C137.07 22.374 134.691 18.4658 130.84 14.6143C126.96 10.7344 123.08 8.35547 118.492 6.57129C114.074 4.84375 109.005 3.68262 101.585 3.34277C94.165 3.00293 91.7861 2.91797 72.8682 2.91797C53.9502 2.91797 51.5713 3.00293 44.1514 3.34277C36.7031 3.6543 31.6338 4.84375 27.2158 6.57129ZM100.99 15.8604C107.787 16.1719 111.469 17.3047 113.933 18.2676C117.189 19.542 119.512 21.043 121.947 23.4785C124.383 25.9141 125.884 28.2363 127.158 31.4932C128.121 33.957 129.254 37.6387 129.565 44.4355C129.905 51.7705 129.962 53.9795 129.962 72.5859C129.962 91.1924 129.877 93.4014 129.565 100.736C129.254 107.533 128.121 111.215 127.158 113.679C125.884 116.936 124.383 119.258 121.947 121.693C119.512 124.129 117.189 125.63 113.933 126.904C111.469 127.867 107.787 129 100.99 129.312C93.6553 129.651 91.4463 129.708 72.8398 129.708C54.2334 129.708 52.0244 129.623 44.6895 129.312C37.8926 129 34.2109 127.867 31.7471 126.904C28.4902 125.63 26.168 124.129 23.7324 121.693C21.2969 119.258 19.7959 116.936 18.5215 113.679C17.5586 111.215 16.4258 107.533 16.1143 100.736C15.7744 93.4014 15.7178 91.1924 15.7178 72.5859C15.7178 53.9795 15.8027 51.7705 16.1143 44.4355C16.4258 37.6387 17.5586 33.957 18.5215 31.4932C19.7959 28.2363 21.2969 25.9141 23.7324 23.4785C26.168 21.043 28.4902 19.542 31.7471 18.2676C34.2109 17.3047 37.8926 16.1719 44.6895 15.8604C52.0244 15.5205 54.2334 15.4639 72.8398 15.4639C91.4463 15.4639 93.6553 15.5205 100.99 15.8604Z"
    fill="url(#paint0_radial_2_3)" />
  <path
    d="M37.0713 72.585C37.0713 92.3525 53.1006 108.354 72.8398 108.354C92.5791 108.354 108.608 92.3242 108.608 72.585C108.608 52.8457 92.6074 36.8164 72.8398 36.8164C53.0723 36.8164 37.0713 52.8174 37.0713 72.585ZM96.0625 72.585C96.0625 85.4141 85.669 95.8076 72.8398 95.8076C60.0107 95.8076 49.6172 85.4141 49.6172 72.585C49.6172 59.7559 60.0107 49.3623 72.8398 49.3623C85.669 49.3623 96.0625 59.7559 96.0625 72.585Z"
    fill="url(#paint1_radial_2_3)" />
  <path
    d="M110.053 43.7559C114.667 43.7559 118.407 40.0154 118.407 35.4014C118.407 30.7873 114.667 27.0469 110.053 27.0469C105.439 27.0469 101.698 30.7873 101.698 35.4014C101.698 40.0154 105.439 43.7559 110.053 43.7559Z"
    fill="#FF0094" />
  <defs>
    <radialGradient id="paint0_radial_2_3" cx="0" cy="0" r="1" gradientUnits="userSpaceOnUse"
      gradientTransform="translate(5.70708 129.471) rotate(-3.00009) scale(201.446 171.227)">
      <stop stop-color="#FFCD59" />
      <stop offset="0.286458" stop-color="#FF5605" />
      <stop offset="0.682292" stop-color="#FF159D" />
      <stop offset="1" stop-color="#EB00FF" />
    </radialGradient>
    <radialGradient id="paint1_radial_2_3" cx="0" cy="0" r="1" gradientUnits="userSpaceOnUse"
      gradientTransform="translate(38.3687 101.794) rotate(-3.00009) scale(103.445 87.9276)">
      <stop stop-color="#FFB200" />
      <stop offset="0.2634" stop-color="#FF5200" />
      <stop offset="0.6091" stop-color="#FF0B98" />
      <stop offset="1" stop-color="#CCFF00" />
    </radialGradient>
  </defs>
</svg>