<svg aria-label="Audo is muted." class="cursor-pointer" color="#ffffff" fill="#ffffff" height="16" role="img"
  viewBox="0 0 48 48" width="16">
  <path clip-rule="evenodd"
    d="M1.5 13.3c-.8 0-1.5.7-1.5 1.5v18.4c0 .8.7 1.5 1.5 1.5h8.7l12.9 12.9c.9.9 2.5.3 2.5-1v-9.8c0-.4-.2-.8-.4-1.1l-22-22c-.3-.3-.7-.4-1.1-.4h-.6zm46.8 31.4l-5.5-5.5C44.9 36.6 48 31.4 48 24c0-11.4-7.2-17.4-7.2-17.4-.6-.6-1.6-.6-2.2 0L37.2 8c-.6.6-.6 1.6 0 2.2 0 0 5.7 5 5.7 13.8 0 5.4-2.1 9.3-3.8 11.6L35.5 32c1.1-1.7 2.3-4.4 2.3-8 0-6.8-4.1-10.3-4.1-10.3-.6-.6-1.6-.6-2.2 0l-1.4 1.4c-.6.6-.6 1.6 0 2.2 0 0 2.6 2 2.6 6.7 0 1.8-.4 3.2-.9 4.3L25.5 22V1.4c0-1.3-1.6-1.9-2.5-1L13.5 10 3.3-.3c-.6-.6-1.5-.6-2.1 0L-.2 1.1c-.6.6-.6 1.5 0 2.1L4 7.6l26.8 26.8 13.9 13.9c.6.6 1.5.6 2.1 0l1.4-1.4c.7-.6.7-1.6.1-2.2z"
    fill-rule="evenodd"></path>
</svg>