<svg aria-label="New post" color="#262626" fill="#262626" height="24" role="img" viewBox="0 0 24 24" width="24">
  <path
    d="M12.003 5.545l-.117.006-.112.02a1 1 0 00-.764.857l-.007.117V11H6.544l-.116.007a1 1 0 00-.877.876L5.545 12l.007.117a1 1 0 00.877.876l.116.007h4.457l.001 4.454.007.116a1 1 0 00.876.877l.117.007.117-.007a1 1 0 00.876-.877l.007-.116V13h4.452l.116-.007a1 1 0 00.877-.876l.007-.117-.007-.117a1 1 0 00-.877-.876L17.455 11h-4.453l.001-4.455-.007-.117a1 1 0 00-.876-.877zM8.552.999h6.896c2.754 0 4.285.579 5.664 1.912 1.255 1.297 1.838 2.758 1.885 5.302L23 8.55v6.898c0 2.755-.578 4.286-1.912 5.664-1.298 1.255-2.759 1.838-5.302 1.885l-.338.003H8.552c-2.754 0-4.285-.579-5.664-1.912-1.255-1.297-1.839-2.758-1.885-5.302L1 15.45V8.551c0-2.754.579-4.286 1.912-5.664C4.21 1.633 5.67 1.05 8.214 1.002L8.552 1z">
  </path>
</svg>