<svg aria-label="Audio is playing" class="cursor-pointer" color="#ffffff" fill="#ffffff" height="16" role="img"
  viewBox="0 0 24 24" width="16">
  <path
    d="M16.636 7.028a1.5 1.5 0 10-2.395 1.807 5.365 5.365 0 011.103 3.17 5.378 5.378 0 01-1.105 3.176 1.5 1.5 0 102.395 1.806 8.396 8.396 0 001.71-4.981 8.39 8.39 0 00-1.708-4.978zm3.73-2.332A1.5 1.5 0 1018.04 6.59 8.823 8.823 0 0120 12.007a8.798 8.798 0 01-1.96 5.415 1.5 1.5 0 002.326 1.894 11.672 11.672 0 002.635-7.31 11.682 11.682 0 00-2.635-7.31zm-8.963-3.613a1.001 1.001 0 00-1.082.187L5.265 6H2a1 1 0 00-1 1v10.003a1 1 0 001 1h3.265l5.01 4.682.02.021a1 1 0 001.704-.814L12.005 2a1 1 0 00-.602-.917z">
  </path>
</svg>